<?xml version="1.0" encoding="UTF-8"?>
<svg xmlns="http://www.w3.org/2000/svg" xmlns:xlink="http://www.w3.org/1999/xlink" width="12px" height="12px" viewBox="0 0 12 12" version="1.1">
<g id="surface1">
<path style=" stroke:none;fill-rule:evenodd;fill:rgb(0%,0%,0%);fill-opacity:1;" d="M 6 0 C 9.3125 0 12 2.6875 12 6 C 12 9.3125 9.3125 12 6 12 C 2.6875 12 0 9.3125 0 6 C 0 2.6875 2.6875 0 6 0 Z M 6 0.5 C 9.035156 0.5 11.5 2.964844 11.5 6 C 11.5 9.035156 9.035156 11.5 6 11.5 C 2.964844 11.5 0.5 9.035156 0.5 6 C 0.5 2.964844 2.964844 0.5 6 0.5 Z M 6 6 L 9 6 L 9 6.5 L 5.5 6.5 L 5.5 2 L 6 2 Z M 6 6 "/>
</g>
</svg>
