<?xml version="1.0" encoding="UTF-8"?>
<svg xmlns="http://www.w3.org/2000/svg" xmlns:xlink="http://www.w3.org/1999/xlink" width="px" height="px" viewBox="0 0 25 25" version="1.1">
<g id="surface1">
<path style=" stroke:none;fill-rule:nonzero;fill:rgb(0%,0%,0%);fill-opacity:1;" d="M 20.5 2 L 4.5 2 C 3.121094 2 2 3.121094 2 4.5 L 2 20.5 C 2 21.878906 3.121094 23 4.5 23 L 20.5 23 C 21.878906 23 23 21.878906 23 20.5 L 23 4.5 C 23 3.121094 21.878906 2 20.5 2 Z M 18.5 9.5 L 17.5 9.5 C 16.429688 9.5 16 9.75 16 10.5 L 16 12 L 18.5 12 L 18 14.5 L 16 14.5 L 16 22 L 13.5 22 L 13.5 14.5 L 11.5 14.5 L 11.5 12 L 13.5 12 L 13.5 10.5 C 13.5 8.5 14.5 7 16.5 7 C 17.949219 7 18.5 7.5 18.5 7.5 Z M 18.5 9.5 "/>
</g>
</svg>
